HIERARCHY
ROOT Hips
{
	OFFSET 0.00000 0.00000 0.00000
	CHANNELS 6 Xposition Yposition Zposition Zrotation Yrotation Xrotation 
	JOINT LHipJoint
	{
		OFFSET 0 0 0
		CHANNELS 3 Zrotation Yrotation Xrotation
		JOINT LeftUpLeg
		{
			OFFSET 1.62964 -1.40469 0.78906
			CHANNELS 3 Zrotation Yrotation Xrotation
			JOINT LeftLeg
			{
				OFFSET 2.29640 -6.30932 0.00000
				CHANNELS 3 Zrotation Yrotation Xrotation
				JOINT LeftFoot
				{
					OFFSET 2.29451 -6.30412 0.00000
					CHANNELS 3 Zrotation Yrotation Xrotation
					JOINT LeftToeBase
					{
						OFFSET 0.03611 -0.09921 1.56387
						CHANNELS 3 Zrotation Yrotation Xrotation
						End Site
						{
							OFFSET 0.00000 -0.00000 0.80291
						}
					}
				}
			}
		}
	}
	JOINT RHipJoint
	{
		OFFSET 0 0 0
		CHANNELS 3 Zrotation Yrotation Xrotation
		JOINT RightUpLeg
		{
			OFFSET -1.73712 -1.40469 0.78906
			CHANNELS 3 Zrotation Yrotation Xrotation
			JOINT RightLeg
			{
				OFFSET -2.28137 -6.26801 0.00000
				CHANNELS 3 Zrotation Yrotation Xrotation
				JOINT RightFoot
				{
					OFFSET -2.28681 -6.28298 0.00000
					CHANNELS 3 Zrotation Yrotation Xrotation
					JOINT RightToeBase
					{
						OFFSET -0.15927 -0.43759 1.61103
						CHANNELS 3 Zrotation Yrotation Xrotation
						End Site
						{
							OFFSET -0.00000 -0.00000 0.84630
						}
					}
				}
			}
		}
	}
	JOINT LowerBack
	{
		OFFSET 0 0 0
		CHANNELS 3 Zrotation Yrotation Xrotation
		JOINT Spine
		{
			OFFSET -0.04227 2.04338 -0.00225
			CHANNELS 3 Zrotation Yrotation Xrotation
			JOINT Spine1
			{
				OFFSET -0.02148 2.04482 -0.04273
				CHANNELS 3 Zrotation Yrotation Xrotation
				JOINT Neck
				{
					OFFSET 0 0 0
					CHANNELS 3 Zrotation Yrotation Xrotation
					JOINT Neck1
					{
						OFFSET 0.09180 1.44629 0.19359
						CHANNELS 3 Zrotation Yrotation Xrotation
						JOINT Head
						{
							OFFSET 0.00887 1.40645 0.14750
							CHANNELS 3 Zrotation Yrotation Xrotation
							End Site
							{
								OFFSET -0.00669 1.50671 0.03707
							}
						}
					}
				}
				JOINT LeftShoulder
				{
					OFFSET 0 0 0
					CHANNELS 3 Zrotation Yrotation Xrotation
					JOINT LeftArm
					{
						OFFSET 2.17674 1.86763 -0.06520
						CHANNELS 3 Zrotation Yrotation Xrotation
						JOINT LeftForeArm
						{
							OFFSET 4.65776 -0.00000 0.00000
							CHANNELS 3 Zrotation Yrotation Xrotation
							JOINT LeftHand
							{
								OFFSET 3.55539 -0.00000 0.00000
								CHANNELS 3 Zrotation Yrotation Xrotation
								JOINT LeftFingerBase
								{
									OFFSET 0 0 0
									CHANNELS 3 Zrotation Yrotation Xrotation
									JOINT LeftHandIndex1
									{
										OFFSET 0.70726 -0.00000 0.00000
										CHANNELS 3 Zrotation Yrotation Xrotation
										End Site
										{
											OFFSET 0.57022 -0.00000 0.00000
										}
									}
								}
								JOINT LThumb
								{
									OFFSET 0 0 0
									CHANNELS 3 Zrotation Yrotation Xrotation
									End Site
									{
										OFFSET 0.57892 -0.00000 0.57892
									}
								}
							}
						}
					}
				}
				JOINT RightShoulder
				{
					OFFSET 0 0 0
					CHANNELS 3 Zrotation Yrotation Xrotation
					JOINT RightArm
					{
						OFFSET -2.80694 1.55459 -0.32496
						CHANNELS 3 Zrotation Yrotation Xrotation
						JOINT RightForeArm
						{
							OFFSET -4.71925 -0.00000 -0.00000
							CHANNELS 3 Zrotation Yrotation Xrotation
							JOINT RightHand
							{
								OFFSET -3.56990 -0.00000 0.00000
								CHANNELS 3 Zrotation Yrotation Xrotation
								JOINT RightFingerBase
								{
									OFFSET 0 0 0
									CHANNELS 3 Zrotation Yrotation Xrotation
									JOINT RightHandIndex1
									{
										OFFSET -0.50776 -0.00000 0.00000
										CHANNELS 3 Zrotation Yrotation Xrotation
										End Site
										{
											OFFSET -0.40937 -0.00000 0.00000
										}
									}
								}
								JOINT RThumb
								{
									OFFSET 0 0 0
									CHANNELS 3 Zrotation Yrotation Xrotation
									End Site
									{
										OFFSET -0.41562 -0.00000 0.41562
									}
								}
							}
						}
					}
				}
			}
		}
	}
}
MOTION
Frames: 13
Frame Time: .0083333
9.4693 16.3260 18.2086 179.3140 -3.0854 -146.6680 0.0000 0.0000 0.0000 -11.8834 -22.8002 -35.0022 1.1307 6.7538 18.9879 0.4875 2.7445 -14.4771 5.9510 -14.3807 -44.7849 0.0000 0.0000 0.0000 11.5791 22.6234 -35.6881 -1.1512 -6.8127 19.1616 -1.4827 -0.9949 -23.3980 -3.3098 11.1804 -32.8909 -6.1148 -1.7022 -25.2170 -0.3672 -1.1784 -2.7068 2.6434 -1.1073 11.1439 -4.8781 -8.1187 5.2277 9.3090 -11.0378 -16.4832 4.2963 -6.1171 -4.9824 -0.0000 -0.0000 0.0000 -70.7572 6.6671 53.1897 20.2700 -30.9662 -5.6696 -0.0000 0.0000 -0.3747 23.4090 -13.3328 -5.7013 -7.1250 0.0000 -0.0000 -2.7085 15.5105 1.8877 -0.0000 -0.0000 0.0000 87.8232 -10.1240 18.2541 -19.8377 30.4463 -5.4489 0.0000 -0.0000 -3.1182 -13.9569 -47.4912 10.3819 7.1250 -0.0000 -0.0000 46.8726 -73.9495 -33.8452
9.4770 16.3060 18.2430 179.1570 -3.1328 -146.0940 0.0000 0.0000 0.0000 -11.4725 -23.3893 -36.7453 1.3534 7.3645 20.7999 0.5420 2.7329 -15.1694 6.0265 -14.4540 -45.0881 0.0000 0.0000 0.0000 11.1160 22.5953 -37.3774 -1.3249 -7.2896 20.5763 -1.5505 -0.9863 -23.9162 -3.5783 11.5771 -34.2518 -6.1751 -1.7508 -25.0323 -0.4192 -1.2316 -2.7201 2.6044 -1.1299 11.0350 -4.6319 -8.2221 5.1261 9.2849 -11.2272 -17.2150 4.2919 -6.2611 -5.1950 0.0000 -0.0000 0.0000 -70.1973 6.9885 53.4241 20.7669 -31.5552 -5.9275 -0.0000 0.0000 -0.5751 23.5511 -13.5135 -5.8157 -7.1250 0.0000 -0.0000 -2.6213 15.3000 1.8387 0.0000 -0.0000 0.0000 87.7292 -10.3510 18.2843 -20.2441 30.9353 -5.6563 0.0000 -0.0000 -3.0510 -14.5190 -47.6784 10.8396 7.1250 -0.0000 -0.0000 46.9046 -74.2726 -34.1631
9.4884 16.2849 18.2762 178.9550 -3.2825 -145.6690 0.0000 0.0000 0.0000 -11.0949 -24.0090 -38.3699 1.6096 8.0007 22.7162 0.5960 2.6260 -15.7715 6.1194 -14.5430 -45.4589 0.0000 0.0000 0.0000 10.6510 22.5741 -38.8655 -1.5162 -7.7759 22.0355 -1.6490 -0.9071 -24.6251 -3.7095 11.7635 -34.9003 -6.3042 -1.8100 -24.5288 -0.4652 -1.3077 -2.7998 2.6115 -1.1589 10.6834 -5.3468 -7.6447 5.4073 8.8878 -10.4861 -16.5914 4.2390 -5.7886 -5.0869 0.0000 -0.0000 0.0000 -69.6588 7.4075 53.7693 21.2315 -32.0976 -6.1725 -0.0000 0.0000 -0.8140 23.6666 -13.4209 -5.8084 -7.1250 0.0000 -0.0000 -2.5368 15.3868 1.7745 0.0000 -0.0000 0.0000 87.5689 -10.9736 18.4844 -20.8167 31.6138 -5.9536 0.0000 -0.0000 -3.3224 -14.5452 -48.1300 10.9353 7.1250 -0.0000 -0.0000 48.2310 -74.5483 -35.4831
9.4986 16.2624 18.3093 178.9040 -3.6018 -145.3470 0.0000 0.0000 0.0000 -10.5601 -24.5005 -39.9424 1.8802 8.6119 24.5887 0.6502 2.1542 -16.1615 6.0321 -14.4594 -45.1106 0.0000 0.0000 0.0000 10.4311 22.5993 -40.0644 -1.6864 -8.1799 23.2617 -1.7109 -0.9461 -25.0923 -3.6779 11.7190 -34.7450 -6.2195 -1.8455 -23.8605 -0.4503 -1.4192 -2.8771 2.5582 -1.1907 10.2487 -4.9617 -8.1365 5.0084 9.2700 -11.1442 -17.2251 4.3289 -6.2025 -5.1653 0.0000 0.0000 0.0000 -69.2134 7.7414 54.0221 21.5977 -32.5194 -6.3682 -0.0000 0.0000 -1.1369 23.4896 -13.3729 -5.7399 -7.1250 0.0000 -0.0000 -2.6555 15.4583 1.8536 0.0000 0.0000 0.0000 87.3852 -11.6584 18.7548 -21.4385 32.3367 -6.2829 0.0000 -0.0000 -3.5645 -14.3035 -48.2501 10.7700 7.1250 -0.0000 -0.0000 48.8077 -74.5258 -35.9307
9.5074 16.2295 18.3465 178.9440 -3.9010 -144.9240 0.0000 0.0000 0.0000 -9.8550 -24.9589 -41.7734 2.1946 9.2601 26.6124 0.7211 1.6339 -16.7133 5.8132 -14.2448 -44.2273 0.0000 0.0000 0.0000 10.2544 22.6462 -41.4689 -1.8827 -8.6173 24.6055 -1.7597 -0.9332 -25.4391 -3.6427 11.6691 -34.5712 -6.0031 -1.8465 -23.4835 -0.4417 -1.4844 -2.8528 2.4317 -1.2012 10.0776 -4.8622 -8.1192 5.2290 9.2899 -11.1634 -17.9304 4.3727 -6.2510 -5.4258 0.0000 -0.0000 0.0000 -68.7524 7.8960 54.1831 21.9594 -32.9311 -6.5637 -0.0000 0.0000 -1.4672 23.3639 -13.5966 -5.7987 -7.1250 0.0000 -0.0000 -2.7545 15.2315 1.9363 0.0000 -0.0000 0.0000 87.2979 -12.0177 18.8447 -21.9974 32.9741 -6.5844 0.0000 -0.0000 -3.4497 -13.9772 -48.1193 10.4989 7.1250 -0.0000 -0.0000 48.6955 -74.3275 -35.6559
9.5162 16.1822 18.3902 179.0770 -3.9351 -144.2520 0.0000 0.0000 0.0000 -8.9317 -25.3567 -44.0229 2.5489 9.9264 28.7386 0.7871 1.4647 -17.3508 5.7328 -14.1643 -43.8997 0.0000 0.0000 0.0000 9.9553 22.8351 -43.4824 -2.1590 -9.1896 26.3903 -1.8526 -0.6198 -25.9831 -3.6876 11.7326 -34.7926 -5.8555 -1.7423 -23.3516 -0.4053 -1.4031 -2.9196 2.4179 -1.1541 9.9223 -5.5808 -8.1456 5.1291 9.9415 -11.1311 -17.4212 4.6437 -6.2199 -5.1647 -0.0000 0.0000 0.0000 -68.3526 8.0485 54.4290 22.2967 -33.3107 -6.7480 -0.0000 0.0000 -1.6127 23.4642 -13.8481 -5.9314 -7.1250 0.0000 -0.0000 -2.7005 14.9494 1.9146 -0.0000 0.0000 0.0000 87.1151 -12.5145 18.9780 -22.6302 33.6820 -6.9321 0.0000 -0.0000 -3.7310 -14.2832 -47.8760 10.6929 7.1250 -0.0000 -0.0000 47.6996 -74.3011 -34.8273
9.5253 16.1373 18.4157 178.9070 -4.3357 -144.3230 0.0000 0.0000 0.0000 -8.7370 -25.7527 -45.1004 2.8648 10.4729 30.5220 0.8259 1.0059 -17.5620 5.7352 -14.1667 -43.9096 0.0000 0.0000 0.0000 9.8728 22.5595 -44.3177 -2.4014 -9.6564 27.8711 -1.9645 -0.5904 -26.7427 -3.7151 11.7714 -34.9279 -5.8426 -1.7996 -22.4000 -0.4135 -1.5059 -2.8697 2.3906 -1.1765 9.4788 -6.2086 -8.1283 5.4282 10.5430 -11.0660 -17.3087 4.9309 -6.1877 -5.1067 -0.0000 -0.0000 0.0000 -67.8636 8.4439 54.7158 22.7327 -33.7952 -6.9890 -0.0000 0.0000 -1.6371 23.5934 -13.9094 -5.9935 -7.1250 0.0000 -0.0000 -2.6160 14.8684 1.8591 -0.0000 -0.0000 0.0000 86.9035 -13.3340 19.3131 -23.4586 34.5865 -7.3970 0.0000 -0.0000 -4.3584 -14.8177 -48.0677 11.1336 7.1250 -0.0000 -0.0000 47.8013 -74.6155 -35.1963
9.5334 16.0765 18.4592 179.0230 -4.4979 -143.8120 0.0000 0.0000 0.0000 -7.9598 -25.8555 -47.2147 3.2424 11.0774 32.5414 0.8835 0.4346 -17.9273 5.5371 -13.9642 -43.0942 0.0000 0.0000 0.0000 9.6946 22.6281 -46.1760 -2.7232 -10.2330 29.7344 -2.0558 -0.4850 -27.3195 -3.8270 11.9265 -35.4725 -5.5887 -1.7274 -21.9611 -0.3909 -1.4961 -2.9203 2.2847 -1.1517 9.1816 -6.7548 -8.1093 5.4866 11.1286 -11.0014 -17.1623 5.1862 -6.1625 -5.0039 -0.0000 0.0000 0.0000 -67.3932 8.7574 54.8601 23.2943 -34.4091 -7.3039 -0.0000 0.0000 -1.7635 23.6830 -13.8491 -5.9935 -7.1250 0.0000 -0.0000 -2.5511 14.9230 1.8099 -0.0000 0.0000 0.0000 86.7009 -13.9455 19.5960 -24.2879 35.4672 -7.8730 0.0000 -0.0000 -4.6022 -14.4514 -48.3429 10.8987 7.1250 -0.0000 -0.0000 48.9645 -74.6347 -36.1593
9.5470 16.0132 18.5053 178.9910 -4.8726 -143.3540 0.0000 0.0000 0.0000 -7.3048 -26.0023 -49.3405 3.6822 11.7251 34.7662 0.9554 -0.3086 -18.3782 5.4421 -13.8650 -42.6995 0.0000 0.0000 0.0000 9.4698 22.5037 -47.9550 -3.0542 -10.7822 31.5488 -2.1572 -0.4022 -27.9569 -3.8365 11.9396 -35.5185 -5.4737 -1.7639 -21.3748 -0.3491 -1.6000 -2.9641 2.2492 -1.1834 8.8260 -7.3572 -8.0783 5.5463 11.7355 -10.9268 -17.0161 5.4574 -6.1308 -4.8980 -0.0000 -0.0000 0.0000 -67.0046 8.9586 54.9442 23.7911 -34.9426 -7.5866 -0.0000 0.0000 -2.1467 23.5736 -13.8310 -5.9550 -7.1250 0.0000 -0.0000 -2.6247 14.9553 1.8605 -0.0000 -0.0000 0.0000 86.4941 -14.4572 19.8907 -25.0090 36.2132 -8.2952 0.0000 -0.0000 -4.8060 -14.5294 -48.1396 10.9249 7.1250 -0.0000 -0.0000 48.2740 -74.5479 -35.5176
9.5575 15.9390 18.5408 179.0390 -5.0148 -143.1090 0.0000 0.0000 0.0000 -7.0207 -25.6864 -51.1428 4.1380 12.3418 36.9521 1.0021 -0.9571 -18.6256 5.6048 -14.0342 -43.3744 0.0000 0.0000 0.0000 9.3705 22.4405 -49.4822 -3.4245 -11.3525 33.4781 -2.3092 0.1899 -28.7357 -3.6564 11.6886 -34.6391 -5.3613 -1.7156 -20.8863 -0.3092 -1.5597 -2.8533 2.2511 -1.1458 8.6824 -8.1358 -8.0182 5.7441 12.4741 -10.8201 -16.9461 5.8096 -6.0858 -4.8234 0.0000 -0.0000 0.0000 -66.7156 8.9935 54.9409 24.1977 -35.3726 -7.8207 -0.0000 0.0000 -2.5685 23.3910 -13.8847 -5.9260 -7.1250 0.0000 -0.0000 -2.7527 14.9184 1.9535 0.0000 -0.0000 0.0000 86.1480 -14.9103 20.3857 -25.8713 37.0814 -8.8099 0.0000 -0.0000 -5.4297 -15.4949 -48.4451 11.7201 7.1250 -0.0000 -0.0000 48.3838 -75.0917 -36.1048
9.5694 15.8559 18.5826 179.1450 -5.0474 -142.8060 0.0000 0.0000 0.0000 -6.6848 -25.2674 -53.0885 4.6234 12.9467 39.1694 1.0513 -1.7392 -18.8764 5.4745 -13.8990 -42.8343 0.0000 0.0000 0.0000 9.2870 22.3991 -51.2035 -3.8507 -11.9591 35.5874 -2.4595 0.8245 -29.4760 -3.6052 11.6157 -34.3856 -5.1942 -1.6090 -20.0547 -0.3197 -1.5043 -2.9869 2.1807 -1.0966 8.0787 -8.7191 -7.9922 5.8067 12.9951 -10.7633 -16.6872 6.0478 -6.0526 -4.6901 0.0000 0.0000 0.0000 -66.3411 9.4300 54.9352 24.6557 -35.8500 -8.0874 -0.0000 0.0000 -2.7562 23.5075 -14.1264 -6.0598 -7.1250 0.0000 -0.0000 -2.6877 14.6448 1.9230 0.0000 0.0000 0.0000 85.9196 -15.7293 20.8032 -26.8089 37.9963 -9.3812 0.0000 -0.0000 -5.7044 -15.7207 -48.5768 11.9182 7.1250 -0.0000 -0.0000 48.6118 -75.2533 -36.4394
9.5835 15.7650 18.6284 179.1540 -5.1589 -142.4730 0.0000 0.0000 0.0000 -6.2026 -25.1601 -55.0579 5.1314 13.5303 41.3874 1.1124 -2.9448 -19.1715 4.6602 -12.9906 -39.3334 0.0000 0.0000 0.0000 9.0712 22.3202 -52.9958 -4.3070 -12.5580 37.7358 -2.6176 1.3163 -30.2904 -3.5503 11.5367 -34.1121 -5.1812 -1.5675 -19.6993 -0.3155 -1.4320 -2.8037 2.2033 -1.0490 8.0832 -9.5372 -7.9205 6.1109 13.8805 -10.6415 -16.6726 6.4652 -6.0132 -4.6415 -0.0000 -0.0000 0.0000 -66.0392 9.3191 54.8411 25.0840 -36.2898 -8.3396 -0.0000 0.0000 -2.8152 23.6753 -14.2906 -6.1770 -7.1250 0.0000 -0.0000 -2.5837 14.4480 1.8593 -0.0000 -0.0000 0.0000 85.7570 -16.0093 20.9643 -27.6549 38.7966 -9.9067 0.0000 -0.0000 -5.7294 -15.8302 -48.5339 11.9953 7.1250 -0.0000 -0.0000 48.3784 -75.2713 -36.2640
9.5958 15.6718 18.6702 179.0830 -5.3346 -142.3890 0.0000 0.0000 0.0000 -5.9486 -25.1072 -56.6467 5.6549 14.0854 43.5804 1.1490 -3.8786 -19.3436 4.2007 -12.4228 -37.2445 0.0000 0.0000 0.0000 8.9012 22.1616 -54.3674 -4.7458 -13.0917 39.7128 -2.7796 1.7796 -31.1164 -3.3979 11.3129 -33.3424 -5.2043 -1.5128 -18.9746 -0.3423 -1.3512 -2.6451 2.2222 -0.9911 7.8588 -10.2913 -7.8652 6.4188 14.6889 -10.5493 -16.6087 6.8496 -5.9846 -4.5851 -0.0000 -0.0000 0.0000 -65.7301 9.2837 54.8775 25.5115 -36.7222 -8.5939 -0.0000 0.0000 -2.9412 23.9936 -14.2125 -6.2365 -7.1250 0.0000 -0.0000 -2.3622 14.4943 1.6973 -0.0000 -0.0000 0.0000 85.5231 -16.4556 21.2878 -28.6243 39.6847 -10.5200 0.0000 -0.0000 -6.2347 -16.6137 -48.7223 12.6386 7.1250 -0.0000 -0.0000 48.3246 -75.6816 -36.5916
